<svg width="512" height="135" xmlns="http://www.w3.org/2000/svg" style="vector-effect: non-scaling-stroke;" stroke="null">

 <g stroke="null">
  <title stroke="null">background</title>
  <rect stroke="null" fill="none" id="canvas_background" height="137" width="514" y="-1" x="-1"/>
 </g>
 <g stroke="null">
  <title stroke="null">Layer 1</title>
  <path stroke="null" id="svg_1" d="m199.334529,33.667303c-1.167464,-2.687936 -4.520242,-1.729291 -5.267543,1.676775c-2.633384,12.032009 -7.676504,35.451854 -10.36609,46.764801c-0.243028,1.115571 -2.726796,3.152498 -4.146591,3.114587c-23.347347,-0.636715 -101.441093,-1.453039 -101.441093,-1.453039l-25.841193,-59.851786l-1.466307,-4.035322c-0.261245,-0.554057 -0.504273,-1.063366 -0.653889,-1.362923c-1.71825,-3.586297 -4.585359,-5.922781 -7.022615,-7.299999c-2.409736,-1.384986 -4.408224,-1.879069 -4.688462,-1.953958l-0.0938,-0.022374l-17.837164,-3.571381c-1.195372,-1.984101 -4.9687,-3.42906 -9.469949,-3.42906c-5.472586,0 -9.91802,2.118653 -9.91802,4.746615c0,2.613047 4.445434,4.739468 9.91802,4.739468c1.774453,0 3.417895,-0.239584 4.875287,-0.651319l19.648827,3.953286c0.317836,0.082658 1.475997,0.463941 2.764782,1.250123c1.438012,0.890903 3.062849,2.246058 4.090389,4.395164c1.363592,2.852941 8.638538,19.002308 15.540608,34.358656c3.455105,7.681903 6.817185,15.183885 9.329636,20.761741c2.194616,4.926536 3.744645,8.347828 4.081086,9.089263c0.056203,0.247352 0.224035,0.980708 0.214733,1.827175c0.009303,0.905819 -0.177523,1.916669 -0.681796,2.70223c-0.504273,0.794262 -1.176767,1.44496 -2.783387,2.022011c-4.986917,1.751975 -7.900927,5.652434 -7.937749,9.695524c-0.037598,2.545615 1.279482,5.249088 4.062093,7.157678c2.773697,1.901753 6.705555,2.919751 11.552547,2.919751c1.288784,0 3.138045,0 5.360568,0l6.574932,0.015226c-5.565998,1.415128 -9.619177,5.533108 -9.619177,10.47456c0,6.079085 6.145079,11.028306 13.765768,11.028306c7.602084,0 13.766156,-4.94922 13.766156,-11.028306c0,-4.926536 -4.043876,-9.044516 -9.600959,-10.467723l6.556715,0.007458c9.235836,0.007147 19.695339,0.030142 29.819564,0.052516c7.069515,0.007147 13.961896,0.014916 20.163565,0.037289l6.088876,0.007147c-5.33266,1.512391 -9.188936,5.555482 -9.188936,10.362692c0,6.079085 6.181514,11.028306 13.774683,11.028306c7.611774,0 13.756078,-4.94922 13.756078,-11.028306c0,-4.784215 -3.791546,-8.81239 -9.096299,-10.354613l6.042364,0.014916c2.306633,0 3.633015,0.007458 3.633015,0.007458c0.018605,0 0.018605,0 0.018605,0c0.448458,0 0.728696,0 0.728696,0c2.082598,0 3.754723,-1.340239 3.754723,-2.995572c0.018993,-1.65409 -1.662435,-3.002098 -3.72604,-3.017325c0,0 -86.582669,-0.157236 -101.824046,-0.157236c-3.605108,-0.006836 -5.603596,-0.733356 -6.649352,-1.459875c-1.045756,-0.741125 -1.438012,-1.572365 -1.47561,-2.605589c-0.037598,-1.647254 1.400802,-3.533781 3.399678,-4.185411c3.203162,-1.078282 5.397778,-2.949893 6.55594,-4.881789c0.560088,-0.920735 0.896529,-1.826864 1.120564,-2.702541c0.691099,0.127094 1.40119,0.216899 2.148491,0.232126l98.060021,1.601885c0.092637,0 0.13101,0 0.177523,0c0.046125,0 0.093025,0 0.12132,0l0.448071,0c0.102715,0 0.149615,0 0.18605,0c2.185701,0 4.203181,-0.621177 5.790034,-1.639485c1.569022,-1.025766 2.801992,-2.485641 3.175255,-4.267137l9.553284,-45.544509c0.12132,-0.561514 0.177523,-1.123029 0.177523,-1.676775c0,-1.189217 0.541483,-3.323097 0,-4.401378z"/>
  <text stroke="null" transform="matrix(9.953479766845703,0,0,5.610366344451904,-3232.6258901953697,-729.1582521647215) " xml:space="preserve" text-anchor="start" font-family="Helvetica, Arial, sans-serif" font-size="24" id="svg_4" y="153.086867" x="347.70815" fill-opacity="null" stroke-opacity="null" stroke-width="0" fill="#000000"/>
  <text stroke="null" transform="matrix(8.71600864016045,0,0,5.86613897555594,-3232.2038172361076,-799.1626815506276) " xml:space="preserve" text-anchor="start" font-family="Helvetica, Arial, sans-serif" font-size="10" id="svg_5" y="145.879741" x="393.941122" fill-opacity="null" stroke-opacity="null" stroke-width="0" fill="#000000">HOME</text>
  <text stroke="null" transform="matrix(30.659417982621534,0,0,41.71079848438342,-10525.953749616237,-6181.514485083626) " xml:space="preserve" text-anchor="start" font-family="Helvetica, Arial, sans-serif" font-size="2" id="svg_6" y="151.315666" x="349.970925" fill-opacity="null" stroke-opacity="null" stroke-width="0" fill="#000000">MARKET</text>
 </g>
</svg>